<svg width="500" height="374" viewBox="0 0 500 374" fill="none" xmlns="http://www.w3.org/2000/svg">
<path d="M500 328.398H0V328.648H500V328.398Z" fill="#EBEBEB"/>
<path d="M237.014 283.8H43.915C40.768 283.8 38.207 281.239 38.207 278.092V6.66003C38.207 3.51303 40.768 0.952026 43.915 0.952026H237.014C240.16 0.952026 242.721 3.51303 242.721 6.66003V278.092C242.721 281.239 240.16 283.8 237.014 283.8ZM43.915 1.20303C40.905 1.20303 38.457 3.65103 38.457 6.66103V278.093C38.457 281.103 40.905 283.551 43.915 283.551H237.014C240.023 283.551 242.471 281.103 242.471 278.093V6.66003C242.471 3.65103 240.023 1.20203 237.014 1.20203L43.915 1.20303Z" fill="#EBEBEB"/>
<path d="M453.31 283.8H260.212C257.065 283.8 254.505 281.239 254.505 278.092V6.66003C254.505 3.51303 257.066 0.952026 260.212 0.952026H453.31C456.458 0.952026 459.018 3.51303 459.018 6.66003V278.092C459.019 281.239 456.458 283.8 453.31 283.8ZM260.212 1.20303C257.203 1.20303 254.755 3.65103 254.755 6.66103V278.093C254.755 281.103 257.203 283.551 260.212 283.551H453.31C456.32 283.551 458.768 281.103 458.768 278.093V6.66003C458.768 3.65103 456.32 1.20203 453.31 1.20203L260.212 1.20303Z" fill="#EBEBEB"/>
<path d="M77.2761 337.922H51.2791V338.172H77.2761V337.922Z" fill="#EBEBEB"/>
<path d="M190.18 335.208H145.153V335.458H190.18V335.208Z" fill="#EBEBEB"/>
<path d="M139.069 347.208H78.2771V347.458H139.069V347.208Z" fill="#EBEBEB"/>
<path d="M448.722 345.528H429.487V345.778H448.722V345.528Z" fill="#EBEBEB"/>
<path d="M420.583 345.528H365.291V345.778H420.583V345.528Z" fill="#EBEBEB"/>
<path d="M331.514 341.306H257.047V341.556H331.514V341.306Z" fill="#EBEBEB"/>
<path d="M190.832 161.44L178.178 328.4H300.158L312.811 161.44H190.832ZM267.538 279.45C266.506 293.07 254.629 304.11 241.009 304.11C227.389 304.11 217.186 293.07 218.218 279.45L222.667 220.75C223.699 207.13 235.577 196.08 249.197 196.08C256.007 196.08 261.968 198.84 266.089 203.31C270.211 207.77 272.503 213.94 271.987 220.75L267.538 279.45Z" fill="#E6E6E6"/>
<path d="M338.875 328.398H161.005L162.03 317.444H339.9L338.875 328.398Z" fill="#E6E6E6"/>
<path d="M407.225 266.406H422.975C423.875 266.406 424.574 265.67 424.529 264.77L424.473 263.652C424.428 262.752 423.655 262.016 422.755 262.016H407.005C406.105 262.016 405.406 262.752 405.451 263.652L405.507 264.77C405.552 265.67 406.325 266.406 407.225 266.406Z" fill="#E0E0E0"/>
<path d="M380.886 266.406H396.636C397.536 266.406 398.235 265.67 398.19 264.77L398.134 263.652C398.089 262.752 397.316 262.016 396.416 262.016H380.666C379.766 262.016 379.067 262.752 379.112 263.652L379.168 264.77C379.214 265.67 379.987 266.406 380.886 266.406Z" fill="#E0E0E0"/>
<path d="M435.225 265.168H67.6009C63.3609 265.168 59.7519 261.731 59.5389 257.491L48.4729 36.673C48.2609 32.433 51.5249 28.996 55.7649 28.996H423.39C427.63 28.996 431.239 32.433 431.452 36.673L442.518 257.491C442.73 261.731 439.465 265.168 435.225 265.168Z" fill="#E0E0E0"/>
<path d="M439.73 265.168H72.1059C67.8659 265.168 64.2569 261.731 64.0439 257.491L52.9779 36.673C52.7649 32.433 56.0299 28.996 60.2699 28.996H427.895C432.135 28.996 435.744 32.433 435.956 36.673L447.022 257.491C447.235 261.731 443.97 265.168 439.73 265.168Z" fill="#E6E6E6"/>
<path d="M74.2559 249.758L63.9649 44.407C63.8319 41.75 65.8779 39.596 68.5349 39.596H420.692C423.349 39.596 425.611 41.75 425.744 44.407L436.035 249.757C436.168 252.414 434.122 254.568 431.465 254.568H79.3079C76.6509 254.568 74.3889 252.415 74.2559 249.758Z" fill="#F5F5F5"/>
<path d="M85.663 50.103C85.781 52.453 83.971 54.359 81.62 54.359C79.269 54.359 77.269 52.454 77.151 50.103C77.033 47.752 78.843 45.847 81.194 45.847C83.544 45.847 85.545 47.752 85.663 50.103Z" fill="white"/>
<path d="M104.935 50.103C105.053 52.453 103.243 54.359 100.892 54.359C98.5409 54.359 96.5399 52.454 96.4229 50.103C96.3049 47.752 98.1149 45.847 100.466 45.847C102.817 45.847 104.817 47.752 104.935 50.103Z" fill="white"/>
<path d="M124.207 50.103C124.325 52.453 122.515 54.359 120.164 54.359C117.814 54.359 115.813 52.454 115.695 50.103C115.577 47.752 117.387 45.847 119.738 45.847C122.088 45.847 124.089 47.752 124.207 50.103Z" fill="white"/>
<g opacity="0.6">
<path d="M110.875 254.568H161.625L208.025 39.596H157.275L110.875 254.568Z" fill="white"/>
<path d="M329.284 254.568H342.129L388.529 39.596H375.684L329.284 254.568Z" fill="white"/>
<path d="M172.908 254.568H244.911L291.311 39.596H219.308L172.908 254.568Z" fill="white"/>
</g>
<path d="M250 373.561C357.082 373.561 443.889 368.492 443.889 362.238C443.889 355.985 357.082 350.915 250 350.915C142.918 350.915 56.1111 355.985 56.1111 362.238C56.1111 368.492 142.918 373.561 250 373.561Z" fill="#F5F5F5"/>
<path d="M360.602 209.054C360.481 209.054 360.359 209.049 360.238 209.039C333.605 206.859 315.27 184.092 314.503 183.124C312.97 181.19 313.295 178.381 315.228 176.849C317.161 175.315 319.967 175.639 321.5 177.571C321.715 177.839 337.403 197.18 359.126 199.943C366.172 192.952 372.105 174.459 371.457 168.866C371.451 168.814 371.446 168.762 371.442 168.71C371.296 166.909 370.961 160.746 372.731 157.065C373.8 154.841 376.466 153.909 378.693 154.976C380.916 156.045 381.851 158.714 380.782 160.938C380.34 161.857 380.133 165.175 380.342 167.93C381.336 177.132 373.36 200.353 363.339 208.117C362.552 208.727 361.589 209.054 360.602 209.054Z" fill="#263238"/>
<path d="M148.824 184.821C140.896 184.821 118.447 182.875 100.259 162.544C98.8439 160.962 98.7379 158.604 100.003 156.901C107.218 147.194 119.963 124.26 121.949 116.787C121.131 115.37 119.644 113.322 117.806 112.459C116.382 111.79 115.414 110.421 115.26 108.856L114.536 101.533C114.293 99.078 116.087 96.891 118.542 96.648C120.994 96.405 123.184 98.198 123.427 100.654L123.93 105.745C128.295 108.875 130.469 113.76 130.735 114.389C131.037 115.102 131.15 115.88 131.06 116.649C130.14 124.587 117.269 147.548 109.351 159.16C127.838 177.589 149.936 175.908 150.91 175.822C153.351 175.623 155.531 177.418 155.753 179.871C155.974 182.323 154.176 184.491 151.725 184.719C151.518 184.735 150.492 184.821 148.824 184.821Z" fill="#263238"/>
<path d="M292.865 362.094H280.895C279.498 362.094 278.183 361.441 277.338 360.329C276.493 359.217 276.217 357.774 276.591 356.429C279.72 345.191 281.256 336.045 282.406 321.723C278.17 301.774 274.178 283.511 274.138 283.327C273.611 280.917 275.137 278.536 277.547 278.01C279.961 277.485 282.338 279.01 282.864 281.419C282.905 281.605 286.987 300.28 291.279 320.503C291.369 320.923 291.396 321.353 291.363 321.781C290.351 334.639 289.052 343.533 286.686 353.161H292.864C295.331 353.161 297.331 355.161 297.331 357.628C297.332 360.094 295.332 362.094 292.865 362.094Z" fill="#263238"/>
<path d="M200.324 362.094H193.564C192.272 362.094 191.043 361.534 190.194 360.559C189.345 359.584 188.961 358.289 189.14 357.01C190.285 348.807 196.179 333.875 202.435 318.866C204.667 299.066 206.492 282.066 206.51 281.895C206.773 279.442 208.971 277.657 211.428 277.93C213.881 278.194 215.656 280.395 215.393 282.848C215.374 283.021 213.508 300.405 211.241 320.499C211.194 320.918 211.087 321.329 210.925 321.719C206.488 332.347 201.435 344.865 199.123 353.159H200.324C202.791 353.159 204.791 355.159 204.791 357.626C204.79 360.094 202.79 362.094 200.324 362.094Z" fill="#263238"/>
<path d="M204.212 56.98L152.147 109.045C149.527 166.76 149.742 227.376 152.147 290.232H324.31C320.902 209.125 320.578 131.055 324.31 56.979H204.212V56.98Z" fill="white"/>
<path d="M324.31 291.125H152.146C151.667 291.125 151.272 290.746 151.254 290.267C148.757 225.005 148.757 164.02 151.255 109.006C151.265 108.783 151.358 108.572 151.515 108.415L203.58 56.35C203.747 56.182 203.975 56.088 204.211 56.088H324.31C324.554 56.088 324.788 56.189 324.956 56.365C325.125 56.543 325.213 56.781 325.201 57.025C321.606 128.37 321.606 204.64 325.201 290.195C325.212 290.437 325.122 290.674 324.954 290.85C324.785 291.025 324.553 291.125 324.31 291.125ZM153.006 289.34H323.379C319.836 204.482 319.834 128.746 323.371 57.873H204.581L153.022 109.433C150.554 164.065 150.549 224.587 153.006 289.34Z" fill="#263238"/>
<path d="M214.279 165.185C214.082 160.832 211.606 157.386 208.748 157.489C205.891 157.592 203.734 161.204 203.932 165.557C204.129 169.91 206.605 173.356 209.463 173.253C212.32 173.15 214.476 169.538 214.279 165.185Z" fill="black"/>
<path d="M274.65 163.825C274.453 159.472 271.977 156.026 269.119 156.129C266.262 156.232 264.105 159.844 264.302 164.198C264.499 168.552 266.975 171.997 269.833 171.894C272.69 171.791 274.847 168.178 274.65 163.825Z" fill="black"/>
<path d="M229.349 183.029C245.179 177.378 257.409 184.017 257.975 184.333C258.595 184.679 258.815 185.455 258.468 186.069C258.121 186.682 257.336 186.9 256.716 186.557C256.574 186.479 242.322 178.797 225.309 187.572C224.677 187.894 223.9 187.654 223.57 187.029C223.24 186.404 223.484 185.634 224.114 185.309C225.895 184.39 227.643 183.638 229.349 183.029Z" fill="black"/>
<path d="M205.641 124.339C206.069 124.349 206.501 124.466 206.897 124.7C208.122 125.424 208.534 126.993 207.816 128.206C200.627 140.352 188.776 140.953 188.275 140.972C186.854 141.029 185.652 139.929 185.584 138.518C185.517 137.112 186.605 135.926 188.017 135.863C188.407 135.843 197.641 135.278 203.378 125.585C203.864 124.764 204.743 124.318 205.641 124.339Z" fill="black"/>
<path d="M266.053 122.872C266.87 122.714 267.751 122.953 268.384 123.586C276.416 131.617 285.521 129.981 285.904 129.908C287.292 129.642 288.651 130.539 288.936 131.918C289.221 133.297 288.339 134.636 286.953 134.917C286.449 135.007 274.808 137.235 264.744 127.174C263.739 126.169 263.739 124.552 264.745 123.561C265.116 123.194 265.573 122.964 266.053 122.872Z" fill="black"/>
<path opacity="0.2" d="M321.717 150.858L314.415 151.543C311.797 151.789 309.406 150.049 308.833 147.483L298.703 102.102C298.091 99.362 299.757 96.629 302.472 95.916L322.062 90.775L321.717 150.858Z" fill="black"/>
<path opacity="0.2" d="M209.016 113.693C203.926 99.795 198.837 77.565 204.212 56.98L152.147 109.045C166.859 113.968 190.319 116.111 209.016 113.693Z" fill="black"/>
<path d="M204.212 109.046C198.504 92.187 200.831 69.267 204.212 56.981L152.147 109.046C167.91 111.915 185.516 111.464 204.212 109.046Z" fill="white"/>
<path d="M175.956 111.925C167.264 111.925 159.316 111.258 151.987 109.924C151.66 109.865 151.394 109.629 151.295 109.312C151.196 108.996 151.281 108.65 151.516 108.416L203.581 56.351C203.868 56.064 204.311 56.007 204.661 56.21C205.011 56.414 205.181 56.828 205.073 57.218C201.926 68.658 199.324 91.823 205.058 108.761C205.144 109.014 205.112 109.292 204.97 109.52C204.828 109.747 204.593 109.898 204.327 109.932C194.049 111.26 184.632 111.925 175.956 111.925ZM153.994 108.461C167.826 110.753 183.898 110.699 203.029 108.297C198.323 93.364 199.386 73.595 202.555 59.9L153.994 108.461Z" fill="#263238"/>
<path d="M383.104 185.114C382.442 185.114 381.836 184.67 381.661 183.999L363.324 114.12C363.114 113.322 363.592 112.506 364.389 112.297C365.19 112.085 366.003 112.565 366.212 113.362L384.549 183.241C384.759 184.039 384.281 184.855 383.484 185.064C383.357 185.099 383.229 185.114 383.104 185.114Z" fill="#263238"/>
<path d="M416.648 82.7773L415.681 83.0311L417.08 88.3628L418.047 88.109L416.648 82.7773Z" fill="#FABB18"/>
<path d="M414.108 77.094L410.256 62.415C409.363 59.013 406.285 56.637 402.771 56.637C402.108 56.637 401.446 56.723 400.804 56.892L390.734 59.535L390.48 58.568L400.549 55.925C401.274 55.734 402.022 55.637 402.771 55.637C406.74 55.637 410.215 58.32 411.223 62.161L415.075 76.84L414.108 77.094Z" fill="#FABB18"/>
<path d="M416.165 115.436L320.826 140.454C318.026 141.189 315.16 139.515 314.426 136.714L302.359 90.728C301.624 87.928 303.299 85.062 306.099 84.328L401.438 59.31C404.238 58.575 407.104 60.249 407.838 63.05L419.905 109.036C420.64 111.836 418.966 114.702 416.165 115.436Z" fill="#FABB18"/>
<path d="M330 102.935L340.853 100.114L341.579 102.911L334.787 104.677L335.327 106.76L341.629 105.122L342.325 107.795L336.022 109.434L336.695 112.017L343.684 110.2L344.456 113.168L333.407 116.042L330 102.935Z" fill="white"/>
<path d="M346.692 112.586L343.283 99.4806L350.033 97.725C351.284 97.4006 352.268 97.2581 352.987 97.3003C353.705 97.3425 354.34 97.6024 354.897 98.0772C355.454 98.5534 355.84 99.2089 356.058 100.042C356.246 100.769 356.254 101.437 356.081 102.045C355.909 102.654 355.592 103.192 355.134 103.66C354.843 103.96 354.414 104.254 353.848 104.549C354.372 104.585 354.765 104.654 355.028 104.758C355.204 104.828 355.48 105.001 355.855 105.279C356.229 105.557 356.488 105.779 356.634 105.946L359.582 109.233L355.007 110.423L351.801 106.982C351.391 106.534 351.06 106.26 350.804 106.163C350.459 106.036 350.103 106.02 349.733 106.116L349.376 106.209L350.759 111.528L346.692 112.586ZM348.732 103.733L350.44 103.288C350.624 103.241 350.965 103.087 351.465 102.832C351.72 102.707 351.904 102.513 352.015 102.248C352.128 101.985 352.147 101.71 352.073 101.423C351.962 101 351.745 100.71 351.418 100.553C351.09 100.397 350.556 100.416 349.818 100.607L348.038 101.07L348.732 103.733Z" fill="white"/>
<path d="M360.931 108.881L357.523 95.7769L364.272 94.0214C365.524 93.6956 366.508 93.5531 367.227 93.5953C367.944 93.6388 368.581 93.8974 369.137 94.3735C369.693 94.8484 370.08 95.5052 370.297 96.3388C370.486 97.0642 370.494 97.7329 370.321 98.341C370.148 98.9504 369.833 99.4872 369.374 99.9554C369.082 100.255 368.654 100.549 368.088 100.846C368.612 100.881 369.005 100.949 369.268 101.054C369.445 101.124 369.721 101.297 370.094 101.574C370.469 101.853 370.727 102.075 370.874 102.241L373.822 105.529L369.246 106.718L366.041 103.277C365.632 102.829 365.3 102.556 365.044 102.458C364.699 102.331 364.342 102.315 363.973 102.411L363.615 102.505L364.999 107.824L360.931 108.881ZM362.972 100.029L364.68 99.5835C364.863 99.536 365.206 99.383 365.705 99.1271C365.959 99.0031 366.144 98.8079 366.255 98.5428C366.368 98.279 366.386 98.0033 366.313 97.7171C366.202 97.2937 365.984 97.0035 365.657 96.8479C365.33 96.691 364.797 96.7094 364.057 96.902L362.278 97.3649L362.972 100.029Z" fill="white"/>
<path d="M372.595 98.862C372.039 96.7226 372.201 94.9011 373.083 93.3988C373.964 91.8978 375.469 90.869 377.597 90.315C379.778 89.7479 381.612 89.8969 383.096 90.7608C384.579 91.6235 385.596 93.1126 386.146 95.2203C386.543 96.7516 386.613 98.0772 386.353 99.1904C386.092 100.305 385.546 101.263 384.713 102.059C383.88 102.858 382.737 103.447 381.283 103.825C379.806 104.21 378.52 104.292 377.43 104.073C376.34 103.854 375.361 103.315 374.493 102.452C373.627 101.592 372.993 100.395 372.595 98.862ZM376.65 97.8266C376.994 99.1508 377.486 100.037 378.128 100.486C378.769 100.935 379.514 101.053 380.361 100.831C381.23 100.606 381.832 100.147 382.159 99.4582C382.489 98.767 382.462 97.6881 382.083 96.2227C381.762 94.9881 381.278 94.1519 380.633 93.7127C379.987 93.2722 379.237 93.1627 378.385 93.3843C377.568 93.5966 376.989 94.0569 376.644 94.7639C376.3 95.4696 376.301 96.4931 376.65 97.8266Z" fill="white"/>
<path d="M390.111 101.293L386.703 88.1875L393.452 86.4333C394.702 86.1075 395.686 85.965 396.405 86.0072C397.124 86.0508 397.76 86.3093 398.316 86.7841C398.873 87.2603 399.258 87.9158 399.476 88.7494C399.664 89.4761 399.672 90.1435 399.499 90.7516C399.327 91.361 399.01 91.8991 398.554 92.3673C398.261 92.6667 397.832 92.9609 397.266 93.2563C397.791 93.2919 398.183 93.3605 398.447 93.4647C398.624 93.5346 398.899 93.7074 399.272 93.9857C399.647 94.2653 399.907 94.4856 400.052 94.6531L403 97.94L398.426 99.131L395.219 95.6898C394.81 95.2427 394.478 94.9697 394.223 94.8708C393.878 94.7441 393.52 94.7283 393.151 94.8246L392.795 94.9169L394.177 100.236L390.111 101.293ZM392.151 92.4399L393.858 91.9954C394.043 91.9479 394.384 91.7936 394.884 91.539C395.139 91.4137 395.322 91.2198 395.434 90.9547C395.546 90.6922 395.565 90.4166 395.491 90.1303C395.38 89.707 395.163 89.4168 394.835 89.2598C394.508 89.1042 393.975 89.1227 393.236 89.3152L391.458 89.7769L392.151 92.4399Z" fill="white"/>
</svg>
