<svg width="17" height="17" viewBox="0 0 17 17" fill="none" xmlns="http://www.w3.org/2000/svg">
<path d="M7.99992 0.5H1.66659C1.48325 0.5 1.33325 0.65 1.33325 0.833333V7.16667C1.33325 7.35 1.48325 7.5 1.66659 7.5H7.99992C8.18325 7.5 8.33325 7.35 8.33325 7.16667V0.833333C8.33325 0.65 8.18325 0.5 7.99992 0.5ZM6.91659 6.08333H2.74992V1.91667H6.91659V6.08333ZM16.3333 0.5H9.99992C9.81659 0.5 9.66659 0.65 9.66659 0.833333V7.16667C9.66659 7.35 9.81659 7.5 9.99992 7.5H16.3333C16.5166 7.5 16.6666 7.35 16.6666 7.16667V0.833333C16.6666 0.65 16.5166 0.5 16.3333 0.5ZM15.2499 6.08333H11.0833V1.91667H15.2499V6.08333ZM16.3333 8.83333H9.99992C9.81659 8.83333 9.66659 8.98333 9.66659 9.16667V15.5C9.66659 15.6833 9.81659 15.8333 9.99992 15.8333H16.3333C16.5166 15.8333 16.6666 15.6833 16.6666 15.5V9.16667C16.6666 8.98333 16.5166 8.83333 16.3333 8.83333ZM15.2499 14.4167H11.0833V10.25H15.2499V14.4167ZM7.16659 12.3333H4.49992V9.66667C4.49992 9.575 4.42492 9.5 4.33325 9.5H3.33325C3.24159 9.5 3.16659 9.575 3.16659 9.66667V12.3333H0.499919C0.408252 12.3333 0.333252 12.4083 0.333252 12.5V13.5C0.333252 13.5917 0.408252 13.6667 0.499919 13.6667H3.16659V16.3333C3.16659 16.425 3.24159 16.5 3.33325 16.5H4.33325C4.42492 16.5 4.49992 16.425 4.49992 16.3333V13.6667H7.16659C7.25825 13.6667 7.33325 13.5917 7.33325 13.5V12.5C7.33325 12.4083 7.25825 12.3333 7.16659 12.3333Z" fill="black"/>
</svg>
