<svg width="19" height="26" viewBox="0 0 19 26" fill="none" xmlns="http://www.w3.org/2000/svg">
<path fill-rule="evenodd" clip-rule="evenodd" d="M4.56672 2.28339H2C0.895431 2.28339 0 3.17882 0 4.28339V23.1171C0 24.2216 0.895433 25.1171 2 25.1171H16.2669C17.3715 25.1171 18.2669 24.2216 18.2669 23.1171V4.28339C18.2669 3.17882 17.3715 2.28339 16.2669 2.28339H13.7002V2.85421C13.7002 3.80001 12.9335 4.56673 11.9877 4.56673H6.27924C5.33344 4.56673 4.56672 3.80001 4.56672 2.85421V2.28339Z" fill="#FABB18"/>
<path fill-rule="evenodd" clip-rule="evenodd" d="M10.2747 1.14168L12.0581 1.14169C12.3343 1.14169 12.5581 1.36554 12.5581 1.64169V2.92505C12.5581 3.2012 12.3343 3.42505 12.0581 3.42505H6.20801C5.93187 3.42505 5.70801 3.2012 5.70801 2.92505V1.64169C5.70801 1.36554 5.93187 1.14169 6.20801 1.14169H7.99138C7.99138 1.14169 7.99138 1.14168 7.99138 1.14168C7.99138 0.511149 8.50253 0 9.13306 0C9.7636 0 10.2747 0.511149 10.2747 1.14168Z" fill="#FABB18"/>
<rect x="3.4248" y="10.2751" width="5.70842" height="2.28337" rx="1.14168" fill="white"/>
<rect x="3.4248" y="14.8419" width="10.2752" height="2.28337" rx="1.14168" fill="white"/>
</svg>
