<svg width="24" height="24" viewBox="0 0 24 24" fill="none" xmlns="http://www.w3.org/2000/svg">
<path d="M16 12.3334C15.71 12.3334 15.38 12.3334 15.03 12.3834C16.19 13.2234 17 14.3334 17 15.8334V18.3334H23V15.8334C23 13.5034 18.33 12.3334 16 12.3334ZM8 12.3334C5.67 12.3334 1 13.5034 1 15.8334V18.3334H15V15.8334C15 13.5034 10.33 12.3334 8 12.3334ZM8 10.3334C8.79565 10.3334 9.55871 10.0173 10.1213 9.45469C10.6839 8.89209 11 8.12902 11 7.33337C11 6.53772 10.6839 5.77466 10.1213 5.21205C9.55871 4.64944 8.79565 4.33337 8 4.33337C7.20435 4.33337 6.44129 4.64944 5.87868 5.21205C5.31607 5.77466 5 6.53772 5 7.33337C5 8.12902 5.31607 8.89209 5.87868 9.45469C6.44129 10.0173 7.20435 10.3334 8 10.3334ZM16 10.3334C16.7956 10.3334 17.5587 10.0173 18.1213 9.45469C18.6839 8.89209 19 8.12902 19 7.33337C19 6.53772 18.6839 5.77466 18.1213 5.21205C17.5587 4.64944 16.7956 4.33337 16 4.33337C15.2044 4.33337 14.4413 4.64944 13.8787 5.21205C13.3161 5.77466 13 6.53772 13 7.33337C13 8.12902 13.3161 8.89209 13.8787 9.45469C14.4413 10.0173 15.2044 10.3334 16 10.3334Z" fill="#FABB18"/>
</svg>
