<svg width="53" height="59" viewBox="0 0 53 59" fill="none" xmlns="http://www.w3.org/2000/svg">
<path fill-rule="evenodd" clip-rule="evenodd" d="M24.0039 18.1325C24.0229 17.871 24.2405 17.6686 24.5026 17.6686H26.0358C26.2938 17.6686 26.5094 17.8649 26.5336 18.1217L27.7177 30.7037L36.0643 35.7718C36.2136 35.8624 36.3048 36.0245 36.3048 36.1992V37.8594C36.3048 38.1923 35.9854 38.4323 35.6656 38.3396L23.1995 34.7269C22.9728 34.6613 22.823 34.446 22.84 34.2106L24.0039 18.1325Z" fill="#FABB18"/>
<path fill-rule="evenodd" clip-rule="evenodd" d="M12.5428 0.613336C12.2874 0.289966 11.7905 0.418447 11.6977 0.831843L8.35593 15.7191C8.281 16.0529 8.52783 16.3664 8.85023 16.347L23.2627 15.4791C23.6627 15.455 23.8692 14.9566 23.6135 14.6327L19.7409 9.72875C21.8844 8.95047 24.1572 8.54397 26.491 8.54397C38.0086 8.54397 47.3454 18.4652 47.3454 30.7037C47.3454 42.9422 38.0086 52.8635 26.491 52.8635C14.9735 52.8635 5.63665 42.9422 5.63665 30.7037C5.63665 28.6492 5.89848 26.6369 6.40903 24.7029L1.68446 23.2947C1.06241 25.6511 0.729736 28.1362 0.729736 30.7037C0.729736 45.8219 12.2635 58.0776 26.491 58.0776C40.7186 58.0776 52.2523 45.8219 52.2523 30.7037C52.2523 15.5856 40.7186 3.3299 26.491 3.3299C22.9123 3.3299 19.504 4.10531 16.4069 5.50665L12.5428 0.613336Z" fill="#FABB18"/>
</svg>
