<svg width="500" height="373" viewBox="0 0 500 373" fill="none" xmlns="http://www.w3.org/2000/svg">
<path d="M500 327.446H0V327.696H500V327.446Z" fill="#D1E3FF"/>
<path d="M445.586 333.881H422.333V334.131H445.586V333.881Z" fill="#D1E3FF"/>
<path d="M361 339.312H250.566V339.562H361V339.312Z" fill="#D1E3FF"/>
<path d="M203.333 339.437H192.5V339.687H203.333V339.437Z" fill="#D1E3FF"/>
<path d="M115.556 336.437H78V336.687H115.556V336.437Z" fill="#D1E3FF"/>
<path d="M412.652 333.881H390.667V334.131H412.652V333.881Z" fill="#D1E3FF"/>
<path d="M69.833 336.437H51.646V336.687H69.833V336.437Z" fill="#D1E3FF"/>
<path d="M237.014 282.848H43.915C40.768 282.848 38.207 280.287 38.207 277.14V5.708C38.207 2.561 40.768 0 43.915 0H237.014C240.16 0 242.721 2.561 242.721 5.708V277.14C242.721 280.287 240.16 282.848 237.014 282.848ZM43.915 0.250999C40.905 0.250999 38.457 2.699 38.457 5.709V277.141C38.457 280.151 40.905 282.599 43.915 282.599H237.014C240.023 282.599 242.471 280.151 242.471 277.141V5.708C242.471 2.699 240.023 0.25 237.014 0.25L43.915 0.250999Z" fill="#D1E3FF"/>
<path d="M453.31 282.848H260.212C257.066 282.848 254.505 280.287 254.505 277.14V5.708C254.505 2.561 257.066 0 260.212 0H453.31C456.458 0 459.018 2.561 459.018 5.708V277.14C459.019 280.287 456.458 282.848 453.31 282.848ZM260.212 0.250999C257.203 0.250999 254.755 2.699 254.755 5.709V277.141C254.755 280.151 257.203 282.599 260.212 282.599H453.31C456.32 282.599 458.768 280.151 458.768 277.141V5.708C458.768 2.699 456.32 0.25 453.31 0.25L260.212 0.250999Z" fill="#D1E3FF"/>
<path d="M323.564 150.164H399.138V18.5985H323.564V150.164Z" fill="#E3E8EE"/>
<path d="M319.481 150.164H395.055V18.5985H319.481V150.164Z" fill="#FDF9EF"/>
<path d="M387.725 143.989V24.7722L326.81 24.7722V143.989H387.725Z" fill="#FFFEEF"/>
<path d="M329.897 143.99V24.773H326.81V143.99H329.897Z" fill="#E3E8EE"/>
<path d="M322.513 115.224L392.023 115.224V106.935L322.513 106.935V115.224Z" fill="#FDF9EF"/>
<path d="M195.14 150.164H270.714V18.5985H195.14V150.164Z" fill="#E5E9EF"/>
<path d="M191.056 150.164H266.63V18.5985H191.056V150.164Z" fill="#FDF9EF"/>
<path d="M259.301 143.99V24.7725L198.386 24.7725L198.386 143.99H259.301Z" fill="#FFFEEF"/>
<path d="M201.473 143.989L201.473 24.7723H198.386L198.386 143.989H201.473Z" fill="#E5E9EF"/>
<path d="M194.088 115.224L263.598 115.224V106.935L194.088 106.935V115.224Z" fill="#FDF9EF"/>
<path d="M66.7156 150.164H142.29L142.29 18.5985H66.7156L66.7156 150.164Z" fill="#E5E9EF"/>
<path d="M62.6318 150.164H138.206L138.206 18.5985H62.6318L62.6318 150.164Z" fill="#FDF9EF"/>
<path d="M130.877 143.99L130.877 24.7728L69.9617 24.7728L69.9617 143.99H130.877Z" fill="#FFFEEF"/>
<path d="M73.0488 143.99L73.0488 24.7726H69.9618L69.9618 143.99H73.0488Z" fill="#E5E9EF"/>
<path d="M65.6648 115.224L135.175 115.224V106.935L65.6648 106.935V115.224Z" fill="#FDF9EF"/>
<path d="M140.02 231.566C126.394 233.445 117.962 203.83 148.059 178.753C146.433 207.782 163.776 228.29 140.02 231.566Z" fill="#DEE4EC"/>
<path d="M130.016 270.357C110.259 256.511 123.782 208.118 184.929 211.625C158.472 247.245 164.46 294.497 130.016 270.357Z" fill="#DEE4EC"/>
<path d="M136.987 270.031C150.121 255.887 131.428 220.298 84.1819 233.294C110.851 256.722 114.09 294.691 136.987 270.031Z" fill="#DEE4EC"/>
<path d="M120.145 249.406C115.604 243.876 110.236 237.654 111.54 231.082C112.886 224.447 116.093 219.607 113.507 212.605C110.409 204.21 111.01 194.187 116.247 195.024C121.475 195.867 127.358 202.004 127.201 210.142C127.106 218.019 132.253 220.535 137.096 224.729C141.923 228.887 143.811 235.035 144.678 241.083C146.206 250.622 158.552 248.813 161.835 257.102C165.217 265.091 158.462 275.747 147.652 278.196C136.802 280.654 129.143 282.172 121.774 273.742C114.276 264.778 126.86 257.331 120.145 249.406Z" fill="#FDF9EF"/>
<path d="M157.328 327.446H116.724L113.659 272.129H160.392L157.328 327.446Z" fill="#F1F1EF"/>
<path d="M163.418 270.996H110.633V276.955H163.418V270.996Z" fill="#F1F1EF"/>
<path d="M396.74 319.939H424.058V201.464H396.74V319.939Z" fill="#F1F1EF"/>
<path d="M182.658 327.446L418.813 327.446V319.939L182.658 319.939V327.446Z" fill="#F1F1EF"/>
<path d="M396.74 201.465H177.412V319.94H396.74V201.465Z" fill="#FDF9EF"/>
<path d="M386 216.047H188.152V254.902H386V216.047Z" fill="#F1F1EF"/>
<path d="M386 266.501H188.152V305.356H386V266.501Z" fill="#F1F1EF"/>
<path d="M225.535 238.139H348.618C350.083 238.139 351.282 236.94 351.282 235.475C351.282 234.01 350.083 232.811 348.618 232.811H225.535C224.07 232.811 222.871 234.01 222.871 235.475C222.87 236.94 224.069 238.139 225.535 238.139Z" fill="#FDF9EF"/>
<path d="M225.535 288.593H348.618C350.083 288.593 351.282 287.394 351.282 285.929C351.282 284.464 350.083 283.265 348.618 283.265H225.535C224.07 283.265 222.871 284.464 222.871 285.929C222.87 287.394 224.069 288.593 225.535 288.593Z" fill="#FDF9EF"/>
<path d="M336.186 184.178C336.186 184.178 367.494 213.836 386.071 184.055C386.071 184.055 381.131 174.488 375.919 173.665C370.708 172.843 370.496 181.947 365.895 179.139C361.294 176.331 355.965 166.722 353.047 171.853C350.129 176.984 346.12 169.67 341.748 169.253C337.376 168.835 336.186 184.178 336.186 184.178Z" fill="#FDF9EF"/>
<path d="M388.063 182.131C388.063 182.131 387.375 201.464 361 201.464C334.625 201.464 333.937 182.131 333.937 182.131H388.063Z" fill="#F1F1EF"/>
<path d="M254.612 172.048H269.802V201.465H225.195C225.196 185.218 238.366 172.048 254.612 172.048Z" fill="#F3F8FF"/>
<path d="M283.814 172.048H269.803V201.465H283.814V172.048Z" fill="#F1F1EF"/>
<path d="M250 372.609C357.082 372.609 443.889 367.54 443.889 361.286C443.889 355.032 357.082 349.963 250 349.963C142.918 349.963 56.1111 355.032 56.1111 361.286C56.1111 367.54 142.918 372.609 250 372.609Z" fill="#FBF7EF"/>
<path d="M218.025 142.809C217.754 143.22 217.584 143.46 217.37 143.756C217.166 144.043 216.962 144.312 216.757 144.58C216.345 145.12 215.917 145.621 215.488 146.128C214.621 147.124 213.737 148.095 212.803 149.009C210.935 150.839 208.925 152.504 206.83 154.049C204.722 155.579 202.487 156.928 200.179 158.132C199.009 158.703 197.844 159.285 196.635 159.766L194.824 160.487L194.32 160.681C194.038 160.774 193.774 160.874 193.47 160.939C192.882 161.08 192.253 161.169 191.62 161.154C190.347 161.151 189.14 160.787 188.206 160.296C187.257 159.804 186.52 159.216 185.898 158.627C184.667 157.438 183.829 156.224 183.106 155.027C181.696 152.619 180.733 150.234 179.914 147.832C178.315 143.019 177.234 138.259 176.562 133.315L180.742 132.397C181.497 134.587 182.275 136.852 183.142 139.026C183.969 141.22 184.864 143.379 185.858 145.437C186.847 147.486 187.903 149.493 189.101 151.131C189.683 151.949 190.321 152.661 190.873 153.091C191.144 153.304 191.386 153.432 191.519 153.469C191.66 153.511 191.646 153.469 191.578 153.446C191.547 153.444 191.517 153.429 191.51 153.425C191.502 153.432 191.514 153.405 191.518 153.408L191.844 153.25L193.338 152.527C194.333 152.047 195.284 151.476 196.252 150.951C198.152 149.822 199.969 148.567 201.729 147.239C203.467 145.88 205.113 144.405 206.655 142.843C207.443 142.078 208.179 141.268 208.893 140.454C209.242 140.045 209.593 139.629 209.916 139.218L210.399 138.609L210.791 138.087L218.025 142.809Z" fill="#CE7A63"/>
<path d="M205.889 142.381L210.959 154.535L207.293 156.832L201.593 145.795L205.889 142.381Z" fill="#CF9602"/>
<path d="M220.239 132.138C211.969 132.024 203.572 142.499 203.359 142.757L209.905 158.134C209.905 158.134 224.453 146.323 225.182 141.707C225.941 136.9 225.482 132.21 220.239 132.138Z" fill="#FABB18"/>
<path d="M180.031 130.819L174.306 126.37L173.153 135.125C173.153 135.125 178.711 137.307 181.673 135.418L181.593 133.82C181.534 132.64 180.963 131.544 180.031 130.819Z" fill="#CE7A63"/>
<path d="M166.663 125.923L167.02 132.583L173.153 135.124L174.306 126.37L166.663 125.923Z" fill="#CE7A63"/>
<path d="M291.952 130.112L300.791 127.9L294.613 121.591C294.613 121.591 288.878 123.925 290.275 128.927L291.952 130.112Z" fill="#CE7A63"/>
<path d="M305.231 126.326L304.5 119.386L294.613 121.591L300.791 127.9L305.231 126.326Z" fill="#CE7A63"/>
<path d="M263.165 352.515L254.936 353.313L248.074 333.885L256.303 333.088L263.165 352.515Z" fill="#CE7A63"/>
<path d="M351.273 311.688L345.207 317.57L329.635 305.412L335.702 299.53L351.273 311.688Z" fill="#CE7A63"/>
<path d="M343.46 316.432L348.119 308.161C348.288 307.86 348.635 307.734 348.953 307.857L356.028 310.601C356.762 310.886 357.075 311.831 356.672 312.519C354.998 315.375 354.046 316.669 351.997 320.306C350.737 322.544 348.277 327.679 346.536 330.769C344.833 333.791 341.647 332.303 342.095 330.86C344.104 324.391 343.757 320.781 343.219 317.918C343.123 317.401 343.212 316.872 343.46 316.432Z" fill="#14365B"/>
<path d="M253.303 350.791H263.327C263.692 350.791 264.021 351.044 264.119 351.4L266.299 359.331C266.525 360.154 265.919 360.932 265.076 360.918C261.573 360.858 259.862 360.653 255.454 360.653C252.742 360.653 243.909 360.935 240.164 360.935C236.501 360.935 235.735 357.232 237.251 356.896C244.047 355.392 249.788 353.318 251.885 351.34C252.262 350.983 252.77 350.791 253.303 350.791Z" fill="#14365B"/>
<path d="M248.078 333.89L251.613 343.905H260.128L256.31 333.092L248.078 333.89Z" fill="#BC6753"/>
<path d="M335.707 299.532L329.638 305.417L337.668 311.681L343.737 305.796L335.707 299.532Z" fill="#BC6753"/>
<path d="M212.188 134.812C212.188 134.812 208.793 137.398 231.697 182.105C244.656 177.922 258.05 173.599 264.356 171.563C259.517 158.448 256.856 150.257 254.404 120.928C254.404 120.928 247.081 121.648 239.946 123.577C230.288 126.188 225.674 128.126 225.116 128.364C218.934 131.002 212.188 134.812 212.188 134.812Z" fill="#FABB18"/>
<path d="M233.086 107.353C233.691 112.427 235.579 121.471 239.945 123.577C239.945 123.577 240.203 128.838 231.337 131.7C221.588 134.847 225.116 128.364 225.116 128.364C230.027 125.376 228.615 121.472 226.492 118.064L233.086 107.353Z" fill="#CE7A63"/>
<path d="M216.701 132.385C219.112 131.135 222.181 129.617 225.116 128.361C229.807 126.357 234.371 125.083 239.948 123.573C242.802 122.797 245.682 122.213 248.112 121.809C248.338 122.487 247.645 124.246 245.956 126.673C240.609 131.121 229.201 136.887 220.788 136.675C217.157 135.311 216.242 133.863 216.701 132.385Z" fill="#CE7A63"/>
<path d="M245.957 126.674C243.642 130.001 239.445 134.589 233.077 139.432C227.276 138.568 223.358 137.642 220.789 136.676C229.202 136.888 240.61 131.123 245.957 126.674Z" fill="#CF9602"/>
<path d="M230.398 111.722L226.494 118.059C227 118.865 227.46 119.699 227.801 120.544C229.739 119.594 232.214 116.784 231.743 114.586C231.508 113.49 230.731 112.161 230.398 111.722Z" fill="#BC6753"/>
<path d="M235.069 97.965C235.573 106.336 235.965 109.868 232.29 114.645C226.761 121.831 216.369 120.619 213.374 112.568C210.678 105.321 210.306 92.849 218.035 88.549C225.65 84.313 234.565 89.594 235.069 97.965Z" fill="#CE7A63"/>
<path d="M251.594 82.9698C253.485 74.6527 248.276 66.3774 239.959 64.4864C231.641 62.5954 223.366 67.8048 221.475 76.1219C219.584 84.439 224.794 92.7143 233.111 94.6053C241.428 96.4963 249.703 91.2869 251.594 82.9698Z" fill="#0F264C"/>
<path d="M232.687 86.25C235.871 88.348 237.453 91.565 236.221 93.436C234.988 95.307 231.408 95.124 228.224 93.026C225.04 90.928 223.458 87.711 224.69 85.84C225.922 83.969 229.503 84.152 232.687 86.25Z" fill="#9FC6FF"/>
<path d="M231.021 103.675C231.854 101.758 228.956 96.056 229.583 93.923C227.916 92.381 211.093 97.862 212.449 93.854C213.746 90.021 217.848 84.923 227.208 87.055C237.245 89.341 238.083 97.988 236.958 100.747C235.833 103.507 234.25 106.38 234.25 106.38L231.021 103.675Z" fill="#0F264C"/>
<path d="M237.275 105.304C237.315 107.042 236.549 108.636 235.545 109.654C234.036 111.184 232.218 110.091 231.747 108.11C231.323 106.327 231.597 103.382 233.541 102.595C235.455 101.819 237.229 103.317 237.275 105.304Z" fill="#CE7A63"/>
<path d="M231.696 182.104C231.696 182.104 216.557 255.945 225 280.298C233.781 305.628 248.074 340.991 248.074 340.991L261.42 340.225C261.42 340.225 250.392 295.543 247.709 275.366C244.01 247.549 259.887 173.005 259.887 173.005L231.696 182.104Z" fill="black"/>
<path d="M262.474 340.548L247.02 341.434L244.542 335.361L261.583 333.59L262.474 340.548Z" fill="#FABB18"/>
<path d="M247.71 187.791C245.39 196.371 247.33 209.231 251.71 218.251C252.78 211.241 253.92 204.471 255 198.401C252.75 194.091 250.27 190.191 247.71 187.791Z" fill="black"/>
<path d="M240.321 179.32C240.321 179.32 262.803 233.005 277.685 262.547C289.705 286.408 334.222 311.378 334.222 311.378L342.195 302.899C342.195 302.899 308.918 273.347 300.619 257.166C274.06 205.377 279.521 182.76 264.355 171.562L240.321 179.32Z" fill="black"/>
<path d="M343.706 301.689L332.712 313.379L325.75 309.715L338.417 296.798L343.706 301.689Z" fill="#FABB18"/>
<path d="M264.226 169.488L266.642 171.936C266.83 172.126 266.635 172.444 266.258 172.566L232.008 183.621C231.714 183.716 231.423 183.651 231.345 183.471L230.107 180.643C230.021 180.447 230.221 180.193 230.543 180.089L263.615 169.414C263.858 169.336 264.105 169.366 264.226 169.488Z" fill="#14365B"/>
<path d="M260.978 174.62L261.864 174.334C262.04 174.277 262.145 174.143 262.097 174.036L260.456 170.372C260.408 170.265 260.224 170.224 260.048 170.281L259.162 170.567C258.986 170.624 258.881 170.758 258.929 170.865L260.57 174.529C260.618 174.635 260.801 174.677 260.978 174.62Z" fill="#9FC6FF"/>
<path d="M234.599 183.134L235.485 182.848C235.661 182.791 235.766 182.657 235.718 182.55L234.077 178.886C234.029 178.779 233.845 178.738 233.669 178.795L232.783 179.081C232.607 179.138 232.502 179.272 232.55 179.38L234.191 183.044C234.239 183.15 234.423 183.191 234.599 183.134Z" fill="#9FC6FF"/>
<path d="M247.788 178.877L248.674 178.591C248.85 178.534 248.955 178.4 248.907 178.293L247.266 174.629C247.218 174.522 247.034 174.481 246.858 174.537L245.972 174.823C245.796 174.88 245.691 175.014 245.739 175.121L247.38 178.785C247.428 178.893 247.612 178.934 247.788 178.877Z" fill="#9FC6FF"/>
<path d="M222.75 101.826C222.833 102.502 222.541 103.095 222.099 103.149C221.657 103.203 221.231 102.698 221.149 102.022C221.066 101.346 221.358 100.753 221.8 100.699C222.242 100.644 222.668 101.149 222.75 101.826Z" fill="#0F264C"/>
<path d="M215.103 102.759C215.186 103.435 214.894 104.028 214.452 104.082C214.01 104.136 213.584 103.631 213.502 102.955C213.419 102.278 213.711 101.686 214.153 101.632C214.595 101.578 215.021 102.083 215.103 102.759Z" fill="#0F264C"/>
<path d="M214.353 101.646L212.671 101.376C212.671 101.376 213.659 102.543 214.353 101.646Z" fill="#0F264C"/>
<path d="M217.266 103.675C217.266 103.675 216.474 106.728 215.381 108.287C216.376 109.012 217.848 108.445 217.848 108.445L217.266 103.675Z" fill="#BA4D3C"/>
<path d="M220.53 110.821C220.43 110.821 220.344 110.746 220.332 110.645C220.319 110.535 220.397 110.436 220.506 110.422C223.467 110.061 224.609 107.816 224.62 107.794C224.669 107.694 224.789 107.652 224.888 107.703C224.987 107.752 225.028 107.872 224.979 107.971C224.93 108.071 223.737 110.431 220.554 110.82C220.547 110.82 220.539 110.821 220.53 110.821Z" fill="#0F264C"/>
<path d="M223.698 99.424C223.605 99.424 223.512 99.392 223.436 99.327C222.098 98.172 220.705 98.54 220.647 98.558C220.435 98.617 220.214 98.494 220.153 98.282C220.093 98.07 220.215 97.85 220.426 97.789C220.503 97.767 222.282 97.276 223.959 98.721C224.126 98.866 224.145 99.118 224.001 99.286C223.921 99.377 223.81 99.424 223.698 99.424Z" fill="#0F264C"/>
<path d="M211.152 99.663C211.092 99.663 211.03 99.649 210.973 99.62C210.775 99.521 210.696 99.28 210.795 99.083C211.79 97.104 213.624 96.877 213.701 96.869C213.921 96.849 214.118 97.003 214.143 97.223C214.167 97.442 214.01 97.64 213.792 97.665C213.731 97.672 212.303 97.865 211.509 99.443C211.44 99.582 211.299 99.663 211.152 99.663Z" fill="#0F264C"/>
<path d="M260.975 128.737L261.351 129.216L261.821 129.784C262.14 130.167 262.476 130.559 262.82 130.941C263.514 131.706 264.234 132.464 264.998 133.186C266.499 134.654 268.092 136.052 269.77 137.349C271.47 138.615 273.214 139.834 275.036 140.939C275.951 141.482 276.883 142.004 277.818 142.519L279.247 143.246L279.945 143.6C280.114 143.675 280.284 143.761 280.443 143.817C281.1 144.081 281.618 144.152 282.054 144.145C282.487 144.129 282.921 143.996 283.453 143.628C284.531 142.907 285.665 141.3 286.542 139.503C287.45 137.695 288.174 135.656 288.767 133.561C289.398 131.484 289.889 129.263 290.301 127.161L294.572 127.431C294.617 132.32 294.116 137.033 292.492 141.949C292.078 143.177 291.537 144.398 290.838 145.625C290.135 146.841 289.251 148.085 287.994 149.181C286.759 150.275 285.059 151.204 283.21 151.526C281.37 151.866 279.541 151.642 278.026 151.166C277.634 151.054 277.275 150.917 276.909 150.78L276.038 150.419L274.335 149.704C273.212 149.199 272.099 148.663 271.008 148.087C268.825 146.932 266.715 145.633 264.699 144.192C262.698 142.732 260.759 141.174 258.949 139.452C258.044 138.592 257.18 137.682 256.333 136.741C255.911 136.266 255.494 135.789 255.087 135.281L254.483 134.501C254.271 134.219 254.105 133.995 253.831 133.595L260.975 128.737Z" fill="#CE7A63"/>
<path d="M268.086 134.008L261.834 144.519L258.776 141.633L264.556 131.113L268.086 134.008Z" fill="#CF9602"/>
<path d="M254.403 120.928C257.996 120.867 266.736 131.19 266.736 131.19L259.142 144.42C259.142 144.42 249.463 135.887 249.473 131.214C249.483 126.347 250.303 120.997 254.403 120.928Z" fill="#FABB18"/>
<path d="M341.821 320.917C341.567 320.917 341.313 320.821 341.062 320.63C340.791 320.423 340.752 320.177 340.768 320.007C340.864 318.932 343.566 317.508 343.873 317.35C343.944 317.315 344.03 317.323 344.092 317.373C344.154 317.424 344.18 317.506 344.157 317.583C343.846 318.663 343.171 320.526 342.151 320.862C342.042 320.9 341.932 320.917 341.821 320.917ZM343.631 317.937C342.566 318.538 341.218 319.476 341.167 320.042C341.161 320.113 341.171 320.208 341.307 320.312C341.557 320.504 341.791 320.56 342.028 320.483C342.577 320.301 343.164 319.363 343.631 317.937Z" fill="#407BFF"/>
<path d="M341.446 318.302C340.921 318.302 340.457 318.212 340.196 317.988C340.055 317.867 339.847 317.593 340.041 317.128C340.163 316.832 340.381 316.628 340.688 316.521C341.848 316.124 343.974 317.303 344.063 317.354C344.126 317.389 344.165 317.455 344.166 317.526C344.167 317.597 344.13 317.664 344.069 317.701C343.557 318.007 342.4 318.302 341.446 318.302ZM341.244 316.836C341.088 316.836 340.944 316.856 340.819 316.899C340.622 316.967 340.488 317.092 340.41 317.28C340.312 317.518 340.384 317.622 340.457 317.684C340.905 318.071 342.568 317.907 343.522 317.522C342.925 317.229 341.955 316.836 341.244 316.836Z" fill="#407BFF"/>
<path d="M248.858 352.445C248.083 352.445 247.361 352.326 246.9 351.977C246.585 351.739 246.414 351.414 246.391 351.014C246.374 350.715 246.518 350.553 246.643 350.469C247.554 349.852 250.966 351.404 251.64 351.721C251.717 351.757 251.763 351.838 251.754 351.924C251.744 352.009 251.682 352.078 251.598 352.097C250.872 352.259 249.824 352.445 248.858 352.445ZM247.261 350.716C247.089 350.716 246.954 350.742 246.867 350.801C246.825 350.829 246.784 350.874 246.791 350.991C246.807 351.273 246.922 351.492 247.142 351.658C247.93 352.253 249.812 352.027 250.907 351.829C249.674 351.293 248.064 350.716 247.261 350.716Z" fill="#407BFF"/>
<path d="M251.556 352.103C251.531 352.103 251.504 352.098 251.48 352.088C250.349 351.625 248.067 349.795 248.196 348.85C248.224 348.643 248.365 348.383 248.881 348.322C250.869 348.062 251.716 351.705 251.752 351.858C251.769 351.931 251.743 352.007 251.686 352.055C251.648 352.086 251.602 352.103 251.556 352.103ZM249.063 348.71C249.019 348.71 248.974 348.713 248.928 348.718C248.718 348.743 248.605 348.806 248.592 348.904C248.518 349.453 250.094 350.898 251.246 351.531C250.983 350.656 250.263 348.71 249.063 348.71Z" fill="#407BFF"/>
<path d="M222 100.712L220.318 100.442C220.318 100.442 221.306 101.61 222 100.712Z" fill="#0F264C"/>
<path d="M159.444 30.826C157.666 33.048 147.916 35.658 140.166 34.937C137.499 52.454 146.833 72.632 146.833 72.632C146.833 72.632 167.083 70.215 167.583 61.882C168.083 53.548 159.444 30.826 159.444 30.826Z" fill="#77B3FC"/>
<path d="M312.729 17.501C314.541 20.047 323.742 22.579 330.84 21.256C334.652 41.999 327.594 66.633 327.594 66.633C327.594 66.633 308.716 64.958 307.612 55.044C306.507 45.13 312.729 17.501 312.729 17.501Z" fill="#77B3FC"/>
<path d="M180.011 197.118C179.403 197.204 178.841 196.781 178.755 196.173L154.951 27.708C154.865 27.1 155.288 26.538 155.896 26.452C156.504 26.366 157.066 26.789 157.152 27.397L180.956 195.862C181.041 196.47 180.618 197.032 180.011 197.118Z" fill="black"/>
<path d="M293.173 184.595C293.781 184.681 294.343 184.258 294.429 183.65L318.233 15.185C318.319 14.577 317.896 14.015 317.288 13.929C316.68 13.843 316.118 14.266 316.032 14.874L292.228 183.339C292.143 183.947 292.566 184.509 293.173 184.595Z" fill="black"/>
<path d="M154.055 31.271L158.547 64.345C158.668 65.235 159.549 65.809 160.413 65.562C170.472 62.683 226.381 48.319 312.337 57.461C313.097 57.542 313.796 57.036 313.942 56.285C315.562 47.905 318.354 24.038 319.058 17.931C319.15 17.129 318.581 16.404 317.78 16.302C306.237 14.84 227.467 6.10701 155.063 29.664C154.383 29.884 153.959 30.563 154.055 31.271Z" fill="#9FC6FF"/>
<path d="M168.477 37.003L173.219 36.041L176.575 44.753L177.424 35.189L182.149 34.231L186.3 42.769L186.363 33.377L191.08 32.421L190.463 49.323L185.567 50.315L180.879 40.703L179.91 51.462L175.014 52.454L168.477 37.003Z" fill="white"/>
<path d="M193.403 32.165L206.894 30.185L207.334 33.672L198.888 34.912L199.216 37.508L207.051 36.358L207.471 39.689L199.636 40.839L200.043 44.059L208.734 42.784L209.201 46.483L195.464 48.499L193.403 32.165Z" fill="white"/>
<path d="M210.325 29.774L215.38 29.229L216.463 41.601L224.353 40.75L224.707 44.791L211.762 46.187L210.325 29.774Z" fill="white"/>
<path d="M237.062 37.11L241.573 38.14C241.339 39.412 240.923 40.49 240.325 41.375C239.726 42.259 238.963 42.949 238.034 43.444C237.105 43.939 235.906 44.239 234.437 44.343C232.655 44.471 231.185 44.315 230.028 43.875C228.871 43.436 227.849 42.591 226.962 41.34C226.073 40.089 225.577 38.443 225.472 36.399C225.332 33.676 225.946 31.531 227.314 29.964C228.682 28.398 230.686 27.52 233.327 27.332C235.393 27.184 237.038 27.487 238.264 28.241C239.488 28.995 240.433 30.22 241.097 31.917L236.673 33.236C236.49 32.746 236.308 32.391 236.124 32.171C235.82 31.802 235.457 31.527 235.037 31.347C234.616 31.167 234.152 31.094 233.645 31.131C232.497 31.213 231.64 31.74 231.077 32.711C230.65 33.432 230.474 34.529 230.55 36.003C230.643 37.828 230.984 39.059 231.571 39.696C232.158 40.334 232.95 40.616 233.95 40.544C234.919 40.475 235.637 40.149 236.106 39.567C236.573 38.986 236.892 38.167 237.062 37.11Z" fill="white"/>
<path d="M243.421 35.203C243.386 32.509 244.105 30.387 245.58 28.838C247.054 27.289 249.125 26.47 251.791 26.383C254.524 26.295 256.64 26.963 258.137 28.389C259.634 29.815 260.401 31.856 260.435 34.512C260.46 36.441 260.157 38.033 259.526 39.287C258.897 40.543 257.975 41.533 256.764 42.26C255.552 42.986 254.034 43.379 252.212 43.438C250.36 43.499 248.824 43.252 247.602 42.699C246.381 42.146 245.384 41.24 244.614 39.982C243.843 38.724 243.446 37.131 243.421 35.203ZM248.495 35.059C248.517 36.725 248.84 37.911 249.466 38.619C250.092 39.326 250.934 39.663 251.995 39.628C253.085 39.593 253.924 39.209 254.513 38.477C255.101 37.744 255.383 36.456 255.36 34.61C255.34 33.057 255.013 31.932 254.38 31.236C253.747 30.54 252.897 30.209 251.83 30.244C250.806 30.277 249.99 30.668 249.38 31.416C248.767 32.164 248.473 33.379 248.495 35.059Z" fill="white"/>
<path d="M263.511 26.336L270.183 26.39L272.482 36.455L275.31 26.431L281.978 26.484L281.527 42.991L277.373 42.957L277.716 30.368L274.172 42.931L270.411 42.901L267.559 30.287L267.216 42.876L263.062 42.843L263.511 26.336Z" fill="white"/>
<path d="M285.639 26.631L299.211 27.235L298.988 30.756L290.491 30.378L290.325 32.999L298.207 33.35L297.993 36.713L290.112 36.363L289.905 39.613L298.648 40.003L298.412 43.738L284.594 43.123L285.639 26.631Z" fill="white"/>
</svg>
